<svg width="512" height="512" viewBox="0 0 600 600" xmlns="http://www.w3.org/2000/svg"><title>Vivarium</title><defs><linearGradient id="g0" gradientUnits="userSpaceOnUse" x1="255" y1="330" x2="265" y2="268"><stop offset="0" stop-color="#6A6963"/><stop offset="1" stop-color="#4E4D49"/></linearGradient><linearGradient id="g1" gradientUnits="userSpaceOnUse" x1="300" y1="470" x2="300" y2="360"><stop offset="0" stop-color="#B4B0A6"/><stop offset="1" stop-color="#9E9A90"/></linearGradient><linearGradient id="g2" gradientUnits="userSpaceOnUse" x1="300" y1="360" x2="185" y2="258"><stop offset="0" stop-color="#9E9A90"/><stop offset="1" stop-color="#6FA588"/></linearGradient><linearGradient id="g3" gradientUnits="userSpaceOnUse" x1="300" y1="360" x2="400" y2="268"><stop offset="0" stop-color="#9E9A90"/><stop offset="1" stop-color="#6F92C0"/></linearGradient><linearGradient id="g4" gradientUnits="userSpaceOnUse" x1="185" y1="258" x2="150" y2="118"><stop offset="0" stop-color="#6FA588"/><stop offset="1" stop-color="#18B08A"/></linearGradient><linearGradient id="g5" gradientUnits="userSpaceOnUse" x1="185" y1="258" x2="238" y2="78"><stop offset="0" stop-color="#6FA588"/><stop offset="1" stop-color="#9BCB2E"/></linearGradient><linearGradient id="g6" gradientUnits="userSpaceOnUse" x1="400" y1="268" x2="505" y2="150"><stop offset="0" stop-color="#6F92C0"/><stop offset="1" stop-color="#8E77E0"/></linearGradient><linearGradient id="g7" gradientUnits="userSpaceOnUse" x1="400" y1="268" x2="355" y2="212"><stop offset="0" stop-color="#6F92C0"/><stop offset="1" stop-color="#4C93CE"/></linearGradient><linearGradient id="g8" gradientUnits="userSpaceOnUse" x1="355" y1="212" x2="318" y2="120"><stop offset="0" stop-color="#4C93CE"/><stop offset="1" stop-color="#22B6DE"/></linearGradient><linearGradient id="g9" gradientUnits="userSpaceOnUse" x1="355" y1="212" x2="405" y2="96"><stop offset="0" stop-color="#4C93CE"/><stop offset="1" stop-color="#4C86EA"/></linearGradient></defs><path d="M245 331 L265 305 L265 268" fill="none" stroke="url(#g0)" stroke-width="8.0" stroke-linecap="butt" stroke-linejoin="round"/><path d="M300 470 L300 360" fill="none" stroke="url(#g1)" stroke-width="14.0" stroke-linecap="round" stroke-linejoin="round"/><path d="M300 360 L185 295 L185 258" fill="none" stroke="url(#g2)" stroke-width="12.0" stroke-linecap="round" stroke-linejoin="round"/><path d="M300 360 L400 305 L400 268" fill="none" stroke="url(#g3)" stroke-width="12.0" stroke-linecap="round" stroke-linejoin="round"/><path d="M185 258 L150 205 L150 118" fill="none" stroke="url(#g4)" stroke-width="10.5" stroke-linecap="round" stroke-linejoin="round"/><path d="M185 258 L238 195 L238 78" fill="none" stroke="url(#g5)" stroke-width="10.5" stroke-linecap="round" stroke-linejoin="round"/><path d="M400 268 L505 210 L505 150" fill="none" stroke="url(#g6)" stroke-width="10.5" stroke-linecap="round" stroke-linejoin="round"/><path d="M400 268 L355 228 L355 212" fill="none" stroke="url(#g7)" stroke-width="10.5" stroke-linecap="round" stroke-linejoin="round"/><path d="M355 212 L318 168 L318 120" fill="none" stroke="url(#g8)" stroke-width="9.5" stroke-linecap="round" stroke-linejoin="round"/><path d="M355 212 L405 165 L405 96" fill="none" stroke="url(#g9)" stroke-width="9.5" stroke-linecap="round" stroke-linejoin="round"/></svg>